<mxfile host="app.diagrams.net" modified="2023-05-08T02:33:00.571Z" agent="Mozilla/5.0 (Windows NT 10.0; Win64; x64) AppleWebKit/537.36 (KHTML, like Gecko) Chrome/113.0.0.0 Safari/537.36" etag="GlS_-m9l826KvZzz30Je" version="21.2.9" type="device">
  <diagram name="Page-1" id="13e1069c-82ec-6db2-03f1-153e76fe0fe0">
    <mxGraphModel dx="1434" dy="707" grid="1" gridSize="10" guides="1" tooltips="1" connect="1" arrows="1" fold="1" page="1" pageScale="1" pageWidth="1100" pageHeight="850" background="none" math="0" shadow="0">
      <root>
        <mxCell id="0" />
        <mxCell id="1" parent="0" />
        <mxCell id="7baba1c4bc27f4b0-2" value="시스템" style="shape=umlLifeline;perimeter=lifelinePerimeter;whiteSpace=wrap;html=1;container=1;collapsible=0;recursiveResize=0;outlineConnect=0;rounded=1;shadow=0;comic=0;labelBackgroundColor=none;strokeWidth=1;fontFamily=Verdana;fontSize=12;align=center;" parent="1" vertex="1">
          <mxGeometry x="490" y="109" width="100" height="2051" as="geometry" />
        </mxCell>
        <mxCell id="7baba1c4bc27f4b0-4" value="DB" style="shape=umlLifeline;perimeter=lifelinePerimeter;whiteSpace=wrap;html=1;container=1;collapsible=0;recursiveResize=0;outlineConnect=0;rounded=1;shadow=0;comic=0;labelBackgroundColor=none;strokeWidth=1;fontFamily=Verdana;fontSize=12;align=center;" parent="1" vertex="1">
          <mxGeometry x="895" y="109" width="100" height="2051" as="geometry" />
        </mxCell>
        <mxCell id="7baba1c4bc27f4b0-8" value="유저" style="shape=umlLifeline;perimeter=lifelinePerimeter;whiteSpace=wrap;html=1;container=1;collapsible=0;recursiveResize=0;outlineConnect=0;rounded=1;shadow=0;comic=0;labelBackgroundColor=none;strokeWidth=1;fontFamily=Verdana;fontSize=12;align=center;" parent="1" vertex="1">
          <mxGeometry x="80" y="109" width="100" height="2051" as="geometry" />
        </mxCell>
        <mxCell id="7baba1c4bc27f4b0-11" value="1. 공지사항 목록 검색 ([GET] /api/v1/announcements)" style="html=1;verticalAlign=bottom;endArrow=block;labelBackgroundColor=none;fontFamily=Helvetica;fontSize=12;edgeStyle=elbowEdgeStyle;elbow=vertical;align=left;fontStyle=1" parent="1" target="7baba1c4bc27f4b0-2" edge="1">
          <mxGeometry x="-1" relative="1" as="geometry">
            <mxPoint x="129.5" y="223" as="sourcePoint" />
            <mxPoint x="430" y="223" as="targetPoint" />
            <mxPoint as="offset" />
          </mxGeometry>
        </mxCell>
        <mxCell id="d7kwrDIypniRsh-_axAG-8" value="2. 요청에 반영된 검색 타입, 키워드를 기반으로 동적 조회 진행" style="html=1;verticalAlign=bottom;endArrow=block;labelBackgroundColor=none;fontFamily=Helvetica;fontSize=12;edgeStyle=elbowEdgeStyle;elbow=vertical;align=left;fontStyle=1" parent="1" source="7baba1c4bc27f4b0-2" edge="1">
          <mxGeometry x="-1" relative="1" as="geometry">
            <mxPoint x="430" y="246.51999999999998" as="sourcePoint" />
            <mxPoint x="944.5" y="247" as="targetPoint" />
            <mxPoint as="offset" />
          </mxGeometry>
        </mxCell>
        <mxCell id="d7kwrDIypniRsh-_axAG-12" value="3. 공지사항 목록 정보 전달" style="html=1;verticalAlign=bottom;endArrow=block;labelBackgroundColor=none;fontFamily=Helvetica;fontSize=12;edgeStyle=elbowEdgeStyle;elbow=vertical;align=right;dashed=1;fontStyle=1" parent="1" edge="1">
          <mxGeometry x="-0.9951" relative="1" as="geometry">
            <mxPoint x="944.5" y="279" as="sourcePoint" />
            <mxPoint x="540" y="280" as="targetPoint" />
            <mxPoint as="offset" />
          </mxGeometry>
        </mxCell>
        <mxCell id="d7kwrDIypniRsh-_axAG-28" value="유저" style="rounded=1;whiteSpace=wrap;html=1;fontSize=12;" parent="1" vertex="1">
          <mxGeometry x="80" y="2160" width="100" height="40" as="geometry" />
        </mxCell>
        <mxCell id="d7kwrDIypniRsh-_axAG-29" value="시스템" style="rounded=1;whiteSpace=wrap;html=1;fontSize=12;" parent="1" vertex="1">
          <mxGeometry x="490" y="2160" width="100" height="40" as="geometry" />
        </mxCell>
        <mxCell id="d7kwrDIypniRsh-_axAG-31" value="DB" style="rounded=1;whiteSpace=wrap;html=1;fontSize=12;" parent="1" vertex="1">
          <mxGeometry x="895" y="2160" width="100" height="40" as="geometry" />
        </mxCell>
        <mxCell id="d7kwrDIypniRsh-_axAG-33" value="&lt;span style=&quot;font-size: 25px;&quot;&gt;&lt;b&gt;고객센터 관련 API&lt;/b&gt;&lt;/span&gt;" style="text;html=1;strokeColor=none;fillColor=none;align=center;verticalAlign=middle;whiteSpace=wrap;rounded=0;fontSize=12;" parent="1" vertex="1">
          <mxGeometry x="348" y="40" width="405" height="30" as="geometry" />
        </mxCell>
        <mxCell id="MBMuwZcIth6A8b6VbHb0-1" value="공지사항 목록 검색 (api/v1/announcements)" style="shape=umlFrame;whiteSpace=wrap;html=1;pointerEvents=0;width=240;height=20;fillColor=#d5e8d4;strokeColor=#82b366;" parent="1" vertex="1">
          <mxGeometry x="80" y="170" width="920" height="160" as="geometry" />
        </mxCell>
        <mxCell id="MBMuwZcIth6A8b6VbHb0-3" value="4. 공지사항 목록 제공" style="html=1;verticalAlign=bottom;endArrow=block;labelBackgroundColor=none;fontFamily=Helvetica;fontSize=12;edgeStyle=elbowEdgeStyle;elbow=vertical;align=right;dashed=1;fontStyle=1;fontColor=#000000;strokeColor=#000000;" parent="1" edge="1">
          <mxGeometry x="-0.9967" relative="1" as="geometry">
            <mxPoint x="540" y="300" as="sourcePoint" />
            <mxPoint x="130" y="300" as="targetPoint" />
            <mxPoint as="offset" />
          </mxGeometry>
        </mxCell>
        <mxCell id="MBMuwZcIth6A8b6VbHb0-4" value="5. 공지사항 단건 조회 ([GET] /api/v1/announcements/{id})" style="html=1;verticalAlign=bottom;endArrow=block;labelBackgroundColor=none;fontFamily=Helvetica;fontSize=12;edgeStyle=elbowEdgeStyle;elbow=vertical;align=left;fontStyle=1" parent="1" edge="1">
          <mxGeometry x="-1" relative="1" as="geometry">
            <mxPoint x="129.5" y="402" as="sourcePoint" />
            <mxPoint x="540" y="402" as="targetPoint" />
            <mxPoint as="offset" />
          </mxGeometry>
        </mxCell>
        <mxCell id="MBMuwZcIth6A8b6VbHb0-5" value="6. id를 통한 공지사항 검색" style="html=1;verticalAlign=bottom;endArrow=block;labelBackgroundColor=none;fontFamily=Helvetica;fontSize=12;edgeStyle=elbowEdgeStyle;elbow=vertical;align=left;fontStyle=1" parent="1" edge="1">
          <mxGeometry x="-1" relative="1" as="geometry">
            <mxPoint x="540" y="426" as="sourcePoint" />
            <mxPoint x="944.5" y="426" as="targetPoint" />
            <mxPoint as="offset" />
          </mxGeometry>
        </mxCell>
        <mxCell id="MBMuwZcIth6A8b6VbHb0-6" value="7. 공지사항 정보 전달" style="html=1;verticalAlign=bottom;endArrow=block;labelBackgroundColor=none;fontFamily=Helvetica;fontSize=12;edgeStyle=elbowEdgeStyle;elbow=vertical;align=right;dashed=1;fontStyle=1" parent="1" edge="1">
          <mxGeometry x="-0.9967" relative="1" as="geometry">
            <mxPoint x="944.5" y="458" as="sourcePoint" />
            <mxPoint x="540" y="459" as="targetPoint" />
            <mxPoint as="offset" />
          </mxGeometry>
        </mxCell>
        <mxCell id="MBMuwZcIth6A8b6VbHb0-7" value="공지사항 단건 조회 (api/v1/announcements/{id})" style="shape=umlFrame;whiteSpace=wrap;html=1;pointerEvents=0;width=270;height=21;fillColor=#d5e8d4;strokeColor=#82b366;" parent="1" vertex="1">
          <mxGeometry x="80" y="349" width="920" height="160" as="geometry" />
        </mxCell>
        <mxCell id="MBMuwZcIth6A8b6VbHb0-9" value="8. 공지사항 제공" style="html=1;verticalAlign=bottom;endArrow=block;labelBackgroundColor=none;fontFamily=Helvetica;fontSize=12;edgeStyle=elbowEdgeStyle;elbow=vertical;align=right;dashed=1;fontStyle=1;fontColor=#000000;strokeColor=#000000;" parent="1" edge="1">
          <mxGeometry x="-0.9967" relative="1" as="geometry">
            <mxPoint x="540" y="479" as="sourcePoint" />
            <mxPoint x="130" y="479" as="targetPoint" />
            <mxPoint as="offset" />
          </mxGeometry>
        </mxCell>
        <mxCell id="BDeGeAlkmkNGhJbs2cDm-1" value="6. 자주 묻는 질문 목록 검색 ([GET] /api/v1/faqs)" style="html=1;verticalAlign=bottom;endArrow=block;labelBackgroundColor=none;fontFamily=Helvetica;fontSize=12;edgeStyle=elbowEdgeStyle;elbow=vertical;align=left;fontStyle=1" edge="1" parent="1">
          <mxGeometry x="-1" relative="1" as="geometry">
            <mxPoint x="129.5" y="583" as="sourcePoint" />
            <mxPoint x="540" y="583" as="targetPoint" />
            <mxPoint as="offset" />
          </mxGeometry>
        </mxCell>
        <mxCell id="BDeGeAlkmkNGhJbs2cDm-2" value="7. 자주 묻는 질문 목록 조회" style="html=1;verticalAlign=bottom;endArrow=block;labelBackgroundColor=none;fontFamily=Helvetica;fontSize=12;edgeStyle=elbowEdgeStyle;elbow=vertical;align=left;fontStyle=1" edge="1" parent="1">
          <mxGeometry x="-1" relative="1" as="geometry">
            <mxPoint x="540" y="607" as="sourcePoint" />
            <mxPoint x="944.5" y="607" as="targetPoint" />
            <mxPoint as="offset" />
          </mxGeometry>
        </mxCell>
        <mxCell id="BDeGeAlkmkNGhJbs2cDm-3" value="8. 자주 묻는 질문 목록 정보 전달" style="html=1;verticalAlign=bottom;endArrow=block;labelBackgroundColor=none;fontFamily=Helvetica;fontSize=12;edgeStyle=elbowEdgeStyle;elbow=vertical;align=right;dashed=1;fontStyle=1" edge="1" parent="1">
          <mxGeometry x="-0.9951" relative="1" as="geometry">
            <mxPoint x="944.5" y="639" as="sourcePoint" />
            <mxPoint x="540" y="640" as="targetPoint" />
            <mxPoint as="offset" />
          </mxGeometry>
        </mxCell>
        <mxCell id="BDeGeAlkmkNGhJbs2cDm-4" value="자주 묻는 질문 목록 검색 (api/v1/faqs)" style="shape=umlFrame;whiteSpace=wrap;html=1;pointerEvents=0;width=240;height=20;fillColor=#d5e8d4;strokeColor=#82b366;" vertex="1" parent="1">
          <mxGeometry x="80" y="530" width="920" height="160" as="geometry" />
        </mxCell>
        <mxCell id="BDeGeAlkmkNGhJbs2cDm-5" value="9. 자주 묻는 질문 목록 제공" style="html=1;verticalAlign=bottom;endArrow=block;labelBackgroundColor=none;fontFamily=Helvetica;fontSize=12;edgeStyle=elbowEdgeStyle;elbow=vertical;align=right;dashed=1;fontStyle=1;fontColor=#000000;strokeColor=#000000;" edge="1" parent="1">
          <mxGeometry x="-0.9967" relative="1" as="geometry">
            <mxPoint x="540" y="660" as="sourcePoint" />
            <mxPoint x="130" y="660" as="targetPoint" />
            <mxPoint as="offset" />
          </mxGeometry>
        </mxCell>
        <mxCell id="BDeGeAlkmkNGhJbs2cDm-6" value="10. 자주 묻는 질문 단건 조회 ([GET] /api/v1/faqs/{id})" style="html=1;verticalAlign=bottom;endArrow=block;labelBackgroundColor=none;fontFamily=Helvetica;fontSize=12;edgeStyle=elbowEdgeStyle;elbow=vertical;align=left;fontStyle=1" edge="1" parent="1">
          <mxGeometry x="-1" relative="1" as="geometry">
            <mxPoint x="129.5" y="762" as="sourcePoint" />
            <mxPoint x="540" y="762" as="targetPoint" />
            <mxPoint as="offset" />
          </mxGeometry>
        </mxCell>
        <mxCell id="BDeGeAlkmkNGhJbs2cDm-7" value="11. id를 통한 자주 묻는 질문 검색" style="html=1;verticalAlign=bottom;endArrow=block;labelBackgroundColor=none;fontFamily=Helvetica;fontSize=12;edgeStyle=elbowEdgeStyle;elbow=vertical;align=left;fontStyle=1" edge="1" parent="1">
          <mxGeometry x="-1" relative="1" as="geometry">
            <mxPoint x="540" y="786" as="sourcePoint" />
            <mxPoint x="944.5" y="786" as="targetPoint" />
            <mxPoint as="offset" />
          </mxGeometry>
        </mxCell>
        <mxCell id="BDeGeAlkmkNGhJbs2cDm-8" value="12. 자주 묻는 질문 정보 전달" style="html=1;verticalAlign=bottom;endArrow=block;labelBackgroundColor=none;fontFamily=Helvetica;fontSize=12;edgeStyle=elbowEdgeStyle;elbow=vertical;align=right;dashed=1;fontStyle=1" edge="1" parent="1">
          <mxGeometry x="-0.9967" relative="1" as="geometry">
            <mxPoint x="944.5" y="818" as="sourcePoint" />
            <mxPoint x="540" y="819" as="targetPoint" />
            <mxPoint as="offset" />
          </mxGeometry>
        </mxCell>
        <mxCell id="BDeGeAlkmkNGhJbs2cDm-9" value="자주 묻는 질문 단건 조회 (api/v1/faqs/{id})" style="shape=umlFrame;whiteSpace=wrap;html=1;pointerEvents=0;width=250;height=21;fillColor=#d5e8d4;strokeColor=#82b366;" vertex="1" parent="1">
          <mxGeometry x="80" y="709" width="920" height="160" as="geometry" />
        </mxCell>
        <mxCell id="BDeGeAlkmkNGhJbs2cDm-10" value="13. 자주 묻는 질문 제공" style="html=1;verticalAlign=bottom;endArrow=block;labelBackgroundColor=none;fontFamily=Helvetica;fontSize=12;edgeStyle=elbowEdgeStyle;elbow=vertical;align=right;dashed=1;fontStyle=1;fontColor=#000000;strokeColor=#000000;" edge="1" parent="1">
          <mxGeometry x="-0.9967" relative="1" as="geometry">
            <mxPoint x="540" y="839" as="sourcePoint" />
            <mxPoint x="130" y="839" as="targetPoint" />
            <mxPoint as="offset" />
          </mxGeometry>
        </mxCell>
        <mxCell id="BDeGeAlkmkNGhJbs2cDm-11" value="14. (로그인된 사용자) 사용자 질문 목록 검색 ([GET] /api/v1/questions)" style="html=1;verticalAlign=bottom;endArrow=block;labelBackgroundColor=none;fontFamily=Helvetica;fontSize=12;edgeStyle=elbowEdgeStyle;elbow=vertical;align=left;fontStyle=1" edge="1" parent="1">
          <mxGeometry x="-1" relative="1" as="geometry">
            <mxPoint x="129.5" y="943" as="sourcePoint" />
            <mxPoint x="540" y="943" as="targetPoint" />
            <mxPoint as="offset" />
          </mxGeometry>
        </mxCell>
        <mxCell id="BDeGeAlkmkNGhJbs2cDm-12" value="15. 사용자 인증 정보 (Authentication) 을 통한 사용자 질문 목록 조회" style="html=1;verticalAlign=bottom;endArrow=block;labelBackgroundColor=none;fontFamily=Helvetica;fontSize=12;edgeStyle=elbowEdgeStyle;elbow=vertical;align=left;fontStyle=1" edge="1" parent="1">
          <mxGeometry x="-1" relative="1" as="geometry">
            <mxPoint x="540" y="967" as="sourcePoint" />
            <mxPoint x="944.5" y="967" as="targetPoint" />
            <mxPoint as="offset" />
          </mxGeometry>
        </mxCell>
        <mxCell id="BDeGeAlkmkNGhJbs2cDm-13" value="16. 사용자 질문 목록 정보 전달" style="html=1;verticalAlign=bottom;endArrow=block;labelBackgroundColor=none;fontFamily=Helvetica;fontSize=12;edgeStyle=elbowEdgeStyle;elbow=vertical;align=right;dashed=1;fontStyle=1" edge="1" parent="1">
          <mxGeometry x="-0.9951" relative="1" as="geometry">
            <mxPoint x="944.5" y="999" as="sourcePoint" />
            <mxPoint x="540" y="1000" as="targetPoint" />
            <mxPoint as="offset" />
          </mxGeometry>
        </mxCell>
        <mxCell id="BDeGeAlkmkNGhJbs2cDm-14" value="사용자 질문 목록 검색 (api/v1/questions)" style="shape=umlFrame;whiteSpace=wrap;html=1;pointerEvents=0;width=240;height=20;fillColor=#d5e8d4;strokeColor=#82b366;" vertex="1" parent="1">
          <mxGeometry x="80" y="890" width="920" height="160" as="geometry" />
        </mxCell>
        <mxCell id="BDeGeAlkmkNGhJbs2cDm-15" value="17. 사용자 질문 목록 제공" style="html=1;verticalAlign=bottom;endArrow=block;labelBackgroundColor=none;fontFamily=Helvetica;fontSize=12;edgeStyle=elbowEdgeStyle;elbow=vertical;align=right;dashed=1;fontStyle=1;fontColor=#000000;strokeColor=#000000;" edge="1" parent="1">
          <mxGeometry x="-0.9967" relative="1" as="geometry">
            <mxPoint x="540" y="1020" as="sourcePoint" />
            <mxPoint x="130" y="1020" as="targetPoint" />
            <mxPoint as="offset" />
          </mxGeometry>
        </mxCell>
        <mxCell id="BDeGeAlkmkNGhJbs2cDm-16" value="15-2. 로그인된 사용자가 아닐 경우 예외 처리" style="html=1;verticalAlign=bottom;endArrow=block;labelBackgroundColor=none;fontFamily=Helvetica;fontSize=12;edgeStyle=elbowEdgeStyle;elbow=vertical;align=right;dashed=1;fontStyle=1;fontColor=#ff0000;strokeColor=#ff0000;" edge="1" parent="1">
          <mxGeometry x="-0.9967" relative="1" as="geometry">
            <mxPoint x="540" y="981" as="sourcePoint" />
            <mxPoint x="130" y="981" as="targetPoint" />
            <mxPoint as="offset" />
          </mxGeometry>
        </mxCell>
        <mxCell id="BDeGeAlkmkNGhJbs2cDm-17" value="18. (로그인된 사용자) 사용자 질문 단건 조회 ([GET] /api/v1/questions/{id})" style="html=1;verticalAlign=bottom;endArrow=block;labelBackgroundColor=none;fontFamily=Helvetica;fontSize=12;edgeStyle=elbowEdgeStyle;elbow=vertical;align=left;fontStyle=1" edge="1" parent="1">
          <mxGeometry x="-1" relative="1" as="geometry">
            <mxPoint x="129.5" y="1123" as="sourcePoint" />
            <mxPoint x="540" y="1123" as="targetPoint" />
            <mxPoint as="offset" />
          </mxGeometry>
        </mxCell>
        <mxCell id="BDeGeAlkmkNGhJbs2cDm-18" value="19. id를 통한 사용자 질문 검색" style="html=1;verticalAlign=bottom;endArrow=block;labelBackgroundColor=none;fontFamily=Helvetica;fontSize=12;edgeStyle=elbowEdgeStyle;elbow=vertical;align=left;fontStyle=1" edge="1" parent="1">
          <mxGeometry x="-1" relative="1" as="geometry">
            <mxPoint x="540" y="1161" as="sourcePoint" />
            <mxPoint x="944.5" y="1161" as="targetPoint" />
            <mxPoint as="offset" />
          </mxGeometry>
        </mxCell>
        <mxCell id="BDeGeAlkmkNGhJbs2cDm-19" value="20. 사용자 질문 및 질문 내 답변 목록 정보 전달" style="html=1;verticalAlign=bottom;endArrow=block;labelBackgroundColor=none;fontFamily=Helvetica;fontSize=12;edgeStyle=elbowEdgeStyle;elbow=vertical;align=right;dashed=1;fontStyle=1" edge="1" parent="1">
          <mxGeometry x="-0.9951" relative="1" as="geometry">
            <mxPoint x="944.5" y="1186" as="sourcePoint" />
            <mxPoint x="540" y="1187" as="targetPoint" />
            <mxPoint as="offset" />
          </mxGeometry>
        </mxCell>
        <mxCell id="BDeGeAlkmkNGhJbs2cDm-20" value="사용자 질문 단건 조회 (api/v1/questions/{id})" style="shape=umlFrame;whiteSpace=wrap;html=1;pointerEvents=0;width=260;height=20;fillColor=#d5e8d4;strokeColor=#82b366;" vertex="1" parent="1">
          <mxGeometry x="80" y="1070" width="920" height="160" as="geometry" />
        </mxCell>
        <mxCell id="BDeGeAlkmkNGhJbs2cDm-21" value="21. 사용자 질문 제공" style="html=1;verticalAlign=bottom;endArrow=block;labelBackgroundColor=none;fontFamily=Helvetica;fontSize=12;edgeStyle=elbowEdgeStyle;elbow=vertical;align=right;dashed=1;fontStyle=1;fontColor=#000000;strokeColor=#000000;" edge="1" parent="1">
          <mxGeometry x="-0.9967" relative="1" as="geometry">
            <mxPoint x="540" y="1209" as="sourcePoint" />
            <mxPoint x="130" y="1209" as="targetPoint" />
            <mxPoint as="offset" />
          </mxGeometry>
        </mxCell>
        <mxCell id="BDeGeAlkmkNGhJbs2cDm-22" value="18-2. 로그인된 사용자가 아닐 경우 예외 처리" style="html=1;verticalAlign=bottom;endArrow=block;labelBackgroundColor=none;fontFamily=Helvetica;fontSize=12;edgeStyle=elbowEdgeStyle;elbow=vertical;align=right;dashed=1;fontStyle=1;fontColor=#ff0000;strokeColor=#ff0000;" edge="1" parent="1">
          <mxGeometry x="-0.9967" relative="1" as="geometry">
            <mxPoint x="540" y="1151" as="sourcePoint" />
            <mxPoint x="130" y="1151" as="targetPoint" />
            <mxPoint as="offset" />
          </mxGeometry>
        </mxCell>
        <mxCell id="BDeGeAlkmkNGhJbs2cDm-24" value="22. (로그인된 사용자) 질문 작성 ([POST] /api/v1/questions)" style="html=1;verticalAlign=bottom;endArrow=block;labelBackgroundColor=none;fontFamily=Helvetica;fontSize=12;edgeStyle=elbowEdgeStyle;elbow=vertical;align=left;fontStyle=1" edge="1" parent="1">
          <mxGeometry x="-1" relative="1" as="geometry">
            <mxPoint x="129.5" y="1303" as="sourcePoint" />
            <mxPoint x="540" y="1303" as="targetPoint" />
            <mxPoint as="offset" />
          </mxGeometry>
        </mxCell>
        <mxCell id="BDeGeAlkmkNGhJbs2cDm-25" value="23. 질문 저장 요청" style="html=1;verticalAlign=bottom;endArrow=block;labelBackgroundColor=none;fontFamily=Helvetica;fontSize=12;edgeStyle=elbowEdgeStyle;elbow=vertical;align=left;fontStyle=1" edge="1" parent="1">
          <mxGeometry x="-1" relative="1" as="geometry">
            <mxPoint x="540" y="1376" as="sourcePoint" />
            <mxPoint x="944.5" y="1376" as="targetPoint" />
            <mxPoint as="offset" />
          </mxGeometry>
        </mxCell>
        <mxCell id="BDeGeAlkmkNGhJbs2cDm-26" value="24. 질문 저장 완료 후 결과 전달" style="html=1;verticalAlign=bottom;endArrow=block;labelBackgroundColor=none;fontFamily=Helvetica;fontSize=12;edgeStyle=elbowEdgeStyle;elbow=vertical;align=right;dashed=1;fontStyle=1" edge="1" parent="1">
          <mxGeometry x="-0.9967" relative="1" as="geometry">
            <mxPoint x="944.5" y="1408" as="sourcePoint" />
            <mxPoint x="540" y="1409" as="targetPoint" />
            <mxPoint as="offset" />
          </mxGeometry>
        </mxCell>
        <mxCell id="BDeGeAlkmkNGhJbs2cDm-27" value="질문 작성 (api/v1/questions)" style="shape=umlFrame;whiteSpace=wrap;html=1;pointerEvents=0;width=200;height=21;fillColor=#fff2cc;strokeColor=#d6b656;" vertex="1" parent="1">
          <mxGeometry x="80" y="1250" width="920" height="200" as="geometry" />
        </mxCell>
        <mxCell id="BDeGeAlkmkNGhJbs2cDm-28" value="22-2. 로그인된 사용자가 아닐 예외 처리" style="html=1;verticalAlign=bottom;endArrow=block;labelBackgroundColor=none;fontFamily=Helvetica;fontSize=12;edgeStyle=elbowEdgeStyle;elbow=vertical;align=right;dashed=1;fontStyle=1;fontColor=#ff0000;strokeColor=#ff0000;" edge="1" parent="1">
          <mxGeometry x="-0.9967" relative="1" as="geometry">
            <mxPoint x="540" y="1329" as="sourcePoint" />
            <mxPoint x="130" y="1329" as="targetPoint" />
            <mxPoint as="offset" />
          </mxGeometry>
        </mxCell>
        <mxCell id="BDeGeAlkmkNGhJbs2cDm-29" value="25. 질문 저장 결과 제공" style="html=1;verticalAlign=bottom;endArrow=block;labelBackgroundColor=none;fontFamily=Helvetica;fontSize=12;edgeStyle=elbowEdgeStyle;elbow=vertical;align=right;dashed=1;fontStyle=1;fontColor=#000000;strokeColor=#000000;" edge="1" parent="1">
          <mxGeometry x="-0.9959" relative="1" as="geometry">
            <mxPoint x="540" y="1429" as="sourcePoint" />
            <mxPoint x="130" y="1429" as="targetPoint" />
            <mxPoint as="offset" />
          </mxGeometry>
        </mxCell>
        <mxCell id="BDeGeAlkmkNGhJbs2cDm-30" value="22-3. 작성 폼 (제목, 내용) 검증 후 문제가 있을 경우 예외 처리" style="html=1;verticalAlign=bottom;endArrow=block;labelBackgroundColor=none;fontFamily=Helvetica;fontSize=12;edgeStyle=elbowEdgeStyle;elbow=vertical;align=right;dashed=1;fontStyle=1;fontColor=#ff0000;strokeColor=#ff0000;" edge="1" parent="1">
          <mxGeometry x="-0.9967" relative="1" as="geometry">
            <mxPoint x="540" y="1352.75" as="sourcePoint" />
            <mxPoint x="130" y="1352.75" as="targetPoint" />
            <mxPoint as="offset" />
          </mxGeometry>
        </mxCell>
        <mxCell id="BDeGeAlkmkNGhJbs2cDm-31" value="26. (로그인된 사용자) 질문 수정 ([PUT] /api/v1/questions/{id})" style="html=1;verticalAlign=bottom;endArrow=block;labelBackgroundColor=none;fontFamily=Helvetica;fontSize=12;edgeStyle=elbowEdgeStyle;elbow=vertical;align=left;fontStyle=1" edge="1" parent="1">
          <mxGeometry x="-1" relative="1" as="geometry">
            <mxPoint x="129.5" y="1523" as="sourcePoint" />
            <mxPoint x="540" y="1523" as="targetPoint" />
            <mxPoint as="offset" />
          </mxGeometry>
        </mxCell>
        <mxCell id="BDeGeAlkmkNGhJbs2cDm-32" value="27. id를 통한 질문 검색 후 질문 수정 요청" style="html=1;verticalAlign=bottom;endArrow=block;labelBackgroundColor=none;fontFamily=Helvetica;fontSize=12;edgeStyle=elbowEdgeStyle;elbow=vertical;align=left;fontStyle=1" edge="1" parent="1">
          <mxGeometry x="-1" relative="1" as="geometry">
            <mxPoint x="540" y="1586" as="sourcePoint" />
            <mxPoint x="944.5" y="1586" as="targetPoint" />
            <mxPoint as="offset" />
          </mxGeometry>
        </mxCell>
        <mxCell id="BDeGeAlkmkNGhJbs2cDm-33" value="28. 질문 수정 완료 후 결과 전달" style="html=1;verticalAlign=bottom;endArrow=block;labelBackgroundColor=none;fontFamily=Helvetica;fontSize=12;edgeStyle=elbowEdgeStyle;elbow=vertical;align=right;dashed=1;fontStyle=1" edge="1" parent="1">
          <mxGeometry x="-0.9967" relative="1" as="geometry">
            <mxPoint x="944.5" y="1628" as="sourcePoint" />
            <mxPoint x="540" y="1629" as="targetPoint" />
            <mxPoint as="offset" />
          </mxGeometry>
        </mxCell>
        <mxCell id="BDeGeAlkmkNGhJbs2cDm-34" value="질문 수정 (api/v1/questions/{id})" style="shape=umlFrame;whiteSpace=wrap;html=1;pointerEvents=0;width=200;height=21;fillColor=#ffe6cc;strokeColor=#d79b00;" vertex="1" parent="1">
          <mxGeometry x="80" y="1470" width="920" height="200" as="geometry" />
        </mxCell>
        <mxCell id="BDeGeAlkmkNGhJbs2cDm-35" value="26-2. 로그인된 사용자가 아닐 예외 처리" style="html=1;verticalAlign=bottom;endArrow=block;labelBackgroundColor=none;fontFamily=Helvetica;fontSize=12;edgeStyle=elbowEdgeStyle;elbow=vertical;align=right;dashed=1;fontStyle=1;fontColor=#ff0000;strokeColor=#ff0000;" edge="1" parent="1">
          <mxGeometry x="-0.9967" relative="1" as="geometry">
            <mxPoint x="540" y="1549" as="sourcePoint" />
            <mxPoint x="130" y="1549" as="targetPoint" />
            <mxPoint as="offset" />
          </mxGeometry>
        </mxCell>
        <mxCell id="BDeGeAlkmkNGhJbs2cDm-36" value="29. 질문 수정 결과 제공" style="html=1;verticalAlign=bottom;endArrow=block;labelBackgroundColor=none;fontFamily=Helvetica;fontSize=12;edgeStyle=elbowEdgeStyle;elbow=vertical;align=right;dashed=1;fontStyle=1;fontColor=#000000;strokeColor=#000000;" edge="1" parent="1">
          <mxGeometry x="-0.9959" relative="1" as="geometry">
            <mxPoint x="540" y="1649" as="sourcePoint" />
            <mxPoint x="130" y="1649" as="targetPoint" />
            <mxPoint as="offset" />
          </mxGeometry>
        </mxCell>
        <mxCell id="BDeGeAlkmkNGhJbs2cDm-37" value="26-3. 수정 폼 (제목, 내용) 검증 후 문제가 있을 경우 예외 처리" style="html=1;verticalAlign=bottom;endArrow=block;labelBackgroundColor=none;fontFamily=Helvetica;fontSize=12;edgeStyle=elbowEdgeStyle;elbow=vertical;align=right;dashed=1;fontStyle=1;fontColor=#ff0000;strokeColor=#ff0000;" edge="1" parent="1">
          <mxGeometry x="-0.9967" relative="1" as="geometry">
            <mxPoint x="540" y="1572.75" as="sourcePoint" />
            <mxPoint x="130" y="1572.75" as="targetPoint" />
            <mxPoint as="offset" />
          </mxGeometry>
        </mxCell>
        <mxCell id="BDeGeAlkmkNGhJbs2cDm-38" value="27-2. 존재하지 않는 질문일 경우 예외 처리" style="html=1;verticalAlign=bottom;endArrow=block;labelBackgroundColor=none;fontFamily=Helvetica;fontSize=12;edgeStyle=elbowEdgeStyle;elbow=vertical;align=right;dashed=1;fontStyle=1;fontColor=#ff0000;strokeColor=#ff0000;" edge="1" parent="1">
          <mxGeometry x="-0.9967" relative="1" as="geometry">
            <mxPoint x="540" y="1600" as="sourcePoint" />
            <mxPoint x="130" y="1600" as="targetPoint" />
            <mxPoint as="offset" />
          </mxGeometry>
        </mxCell>
        <mxCell id="BDeGeAlkmkNGhJbs2cDm-39" value="30. (로그인된 사용자) 질문 삭제 ([DELETE] /api/v1/questions/{id})" style="html=1;verticalAlign=bottom;endArrow=block;labelBackgroundColor=none;fontFamily=Helvetica;fontSize=12;edgeStyle=elbowEdgeStyle;elbow=vertical;align=left;fontStyle=1" edge="1" parent="1">
          <mxGeometry x="-1" relative="1" as="geometry">
            <mxPoint x="129.5" y="1743" as="sourcePoint" />
            <mxPoint x="540" y="1743" as="targetPoint" />
            <mxPoint as="offset" />
          </mxGeometry>
        </mxCell>
        <mxCell id="BDeGeAlkmkNGhJbs2cDm-40" value="31. id를 통한 질문 검색 후 질문 삭제 요청" style="html=1;verticalAlign=bottom;endArrow=block;labelBackgroundColor=none;fontFamily=Helvetica;fontSize=12;edgeStyle=elbowEdgeStyle;elbow=vertical;align=left;fontStyle=1" edge="1" parent="1">
          <mxGeometry x="-1" relative="1" as="geometry">
            <mxPoint x="540" y="1787" as="sourcePoint" />
            <mxPoint x="944.5" y="1787" as="targetPoint" />
            <mxPoint as="offset" />
          </mxGeometry>
        </mxCell>
        <mxCell id="BDeGeAlkmkNGhJbs2cDm-41" value="32. 질문 삭제 + 질문 내 답변 목록 삭제 완료 후 결과 전달" style="html=1;verticalAlign=bottom;endArrow=block;labelBackgroundColor=none;fontFamily=Helvetica;fontSize=12;edgeStyle=elbowEdgeStyle;elbow=vertical;align=right;dashed=1;fontStyle=1" edge="1" parent="1">
          <mxGeometry x="-0.9967" relative="1" as="geometry">
            <mxPoint x="944.5" y="1825" as="sourcePoint" />
            <mxPoint x="540" y="1826" as="targetPoint" />
            <mxPoint as="offset" />
          </mxGeometry>
        </mxCell>
        <mxCell id="BDeGeAlkmkNGhJbs2cDm-42" value="질문 삭제 (api/v1/questions/{id})" style="shape=umlFrame;whiteSpace=wrap;html=1;pointerEvents=0;width=200;height=21;fillColor=#f8cecc;strokeColor=#b85450;" vertex="1" parent="1">
          <mxGeometry x="80" y="1690" width="920" height="180" as="geometry" />
        </mxCell>
        <mxCell id="BDeGeAlkmkNGhJbs2cDm-43" value="30-2. 로그인된 사용자가 아닐 예외 처리" style="html=1;verticalAlign=bottom;endArrow=block;labelBackgroundColor=none;fontFamily=Helvetica;fontSize=12;edgeStyle=elbowEdgeStyle;elbow=vertical;align=right;dashed=1;fontStyle=1;fontColor=#ff0000;strokeColor=#ff0000;" edge="1" parent="1">
          <mxGeometry x="-0.9967" relative="1" as="geometry">
            <mxPoint x="540" y="1769" as="sourcePoint" />
            <mxPoint x="130" y="1769" as="targetPoint" />
            <mxPoint as="offset" />
          </mxGeometry>
        </mxCell>
        <mxCell id="BDeGeAlkmkNGhJbs2cDm-44" value="33. 질문 삭제 결과 제공" style="html=1;verticalAlign=bottom;endArrow=block;labelBackgroundColor=none;fontFamily=Helvetica;fontSize=12;edgeStyle=elbowEdgeStyle;elbow=vertical;align=right;dashed=1;fontStyle=1;fontColor=#000000;strokeColor=#000000;" edge="1" parent="1">
          <mxGeometry x="-0.9959" relative="1" as="geometry">
            <mxPoint x="540" y="1846" as="sourcePoint" />
            <mxPoint x="130" y="1846" as="targetPoint" />
            <mxPoint as="offset" />
          </mxGeometry>
        </mxCell>
        <mxCell id="BDeGeAlkmkNGhJbs2cDm-45" value="31-2. 존재하지 않는 질문일 경우 예외 처리" style="html=1;verticalAlign=bottom;endArrow=block;labelBackgroundColor=none;fontFamily=Helvetica;fontSize=12;edgeStyle=elbowEdgeStyle;elbow=vertical;align=right;dashed=1;fontStyle=1;fontColor=#ff0000;strokeColor=#ff0000;" edge="1" parent="1">
          <mxGeometry x="-0.9967" relative="1" as="geometry">
            <mxPoint x="540" y="1801" as="sourcePoint" />
            <mxPoint x="130" y="1801" as="targetPoint" />
            <mxPoint as="offset" />
          </mxGeometry>
        </mxCell>
        <mxCell id="BDeGeAlkmkNGhJbs2cDm-46" value="34. (로그인된 사용자) 답변 작성 ([POST] /api/v1/answers)" style="html=1;verticalAlign=bottom;endArrow=block;labelBackgroundColor=none;fontFamily=Helvetica;fontSize=12;edgeStyle=elbowEdgeStyle;elbow=vertical;align=left;fontStyle=1" edge="1" parent="1">
          <mxGeometry x="-1" relative="1" as="geometry">
            <mxPoint x="128.5" y="1953" as="sourcePoint" />
            <mxPoint x="539" y="1953" as="targetPoint" />
            <mxPoint as="offset" />
          </mxGeometry>
        </mxCell>
        <mxCell id="BDeGeAlkmkNGhJbs2cDm-47" value="35. 답변 작성 시 기입한 질문 id로 질문 조회 요청" style="html=1;verticalAlign=bottom;endArrow=block;labelBackgroundColor=none;fontFamily=Helvetica;fontSize=12;edgeStyle=elbowEdgeStyle;elbow=vertical;align=left;fontStyle=1" edge="1" parent="1">
          <mxGeometry x="-1" relative="1" as="geometry">
            <mxPoint x="539.6666666666667" y="2011.8333333333335" as="sourcePoint" />
            <mxPoint x="944.5" y="2012" as="targetPoint" />
            <mxPoint as="offset" />
          </mxGeometry>
        </mxCell>
        <mxCell id="BDeGeAlkmkNGhJbs2cDm-48" value="37. 답변 저장 완료 후 결과 전달" style="html=1;verticalAlign=bottom;endArrow=block;labelBackgroundColor=none;fontFamily=Helvetica;fontSize=12;edgeStyle=elbowEdgeStyle;elbow=vertical;align=right;dashed=1;fontStyle=1" edge="1" parent="1">
          <mxGeometry x="-0.9967" relative="1" as="geometry">
            <mxPoint x="944.5" y="2065" as="sourcePoint" />
            <mxPoint x="540" y="2066" as="targetPoint" />
            <mxPoint as="offset" />
          </mxGeometry>
        </mxCell>
        <mxCell id="BDeGeAlkmkNGhJbs2cDm-49" value="답변 작성 (api/v1/answers)" style="shape=umlFrame;whiteSpace=wrap;html=1;pointerEvents=0;width=210;height=20;fillColor=#fff2cc;strokeColor=#d6b656;" vertex="1" parent="1">
          <mxGeometry x="80" y="1900" width="920" height="190" as="geometry" />
        </mxCell>
        <mxCell id="BDeGeAlkmkNGhJbs2cDm-50" value="34-2. 로그인된 사용자가 아닐 경우 예외 처리" style="html=1;verticalAlign=bottom;endArrow=block;labelBackgroundColor=none;fontFamily=Helvetica;fontSize=12;edgeStyle=elbowEdgeStyle;elbow=vertical;align=right;dashed=1;fontStyle=1;fontColor=#ff0000;strokeColor=#ff0000;" edge="1" parent="1">
          <mxGeometry x="-0.9967" relative="1" as="geometry">
            <mxPoint x="539.5000000000002" y="1977" as="sourcePoint" />
            <mxPoint x="130" y="1977" as="targetPoint" />
            <mxPoint as="offset" />
          </mxGeometry>
        </mxCell>
        <mxCell id="BDeGeAlkmkNGhJbs2cDm-51" value="38. 답변 저장 결과 제공" style="html=1;verticalAlign=bottom;endArrow=block;labelBackgroundColor=none;fontFamily=Helvetica;fontSize=12;edgeStyle=elbowEdgeStyle;elbow=vertical;align=right;dashed=1;fontStyle=1;fontColor=#000000;strokeColor=#000000;" edge="1" parent="1">
          <mxGeometry x="-0.9967" relative="1" as="geometry">
            <mxPoint x="540" y="2078" as="sourcePoint" />
            <mxPoint x="130" y="2078" as="targetPoint" />
            <mxPoint as="offset" />
          </mxGeometry>
        </mxCell>
        <mxCell id="BDeGeAlkmkNGhJbs2cDm-52" value="35-2. 질문이 존재하지 않을 경우 예외 처리" style="html=1;verticalAlign=bottom;endArrow=block;labelBackgroundColor=none;fontFamily=Helvetica;fontSize=12;edgeStyle=elbowEdgeStyle;elbow=vertical;align=right;dashed=1;fontStyle=1;fontColor=#ff0000;strokeColor=#ff0000;" edge="1" parent="1">
          <mxGeometry x="-0.9951" relative="1" as="geometry">
            <mxPoint x="539.5000000000002" y="2023" as="sourcePoint" />
            <mxPoint x="130" y="2023" as="targetPoint" />
            <mxPoint as="offset" />
          </mxGeometry>
        </mxCell>
        <mxCell id="BDeGeAlkmkNGhJbs2cDm-53" value="36. 답변 저장 요청" style="html=1;verticalAlign=bottom;endArrow=block;labelBackgroundColor=none;fontFamily=Helvetica;fontSize=12;edgeStyle=elbowEdgeStyle;elbow=vertical;align=left;fontStyle=1" edge="1" parent="1">
          <mxGeometry x="-1" relative="1" as="geometry">
            <mxPoint x="539.9966666666668" y="2038.0033333333333" as="sourcePoint" />
            <mxPoint x="944.83" y="2038.17" as="targetPoint" />
            <mxPoint as="offset" />
          </mxGeometry>
        </mxCell>
        <mxCell id="BDeGeAlkmkNGhJbs2cDm-54" value="34-3. 작성 폼 (내용) 검증 후 문제가 있을 경우 예외 처리" style="html=1;verticalAlign=bottom;endArrow=block;labelBackgroundColor=none;fontFamily=Helvetica;fontSize=12;edgeStyle=elbowEdgeStyle;elbow=vertical;align=right;dashed=1;fontStyle=1;fontColor=#ff0000;strokeColor=#ff0000;" edge="1" parent="1">
          <mxGeometry x="-0.9967" relative="1" as="geometry">
            <mxPoint x="540" y="1998" as="sourcePoint" />
            <mxPoint x="130" y="1998" as="targetPoint" />
            <mxPoint as="offset" />
          </mxGeometry>
        </mxCell>
      </root>
    </mxGraphModel>
  </diagram>
</mxfile>
